<?xml version="1.0" standalone="no"?>
<!DOCTYPE svg PUBLIC "-//W3C//DTD SVG 20010904//EN"
 "http://www.w3.org/TR/2001/REC-SVG-20010904/DTD/svg10.dtd">
<svg version="1.0" xmlns="http://www.w3.org/2000/svg"
 width="32.000000pt" height="32.000000pt" viewBox="0 0 32.000000 32.000000"
 preserveAspectRatio="xMidYMid meet">

<g transform="translate(0.000000,32.000000) scale(0.100000,-0.100000)"
fill="#000000" stroke="none">
<path d="M0 160 l0 -160 160 0 160 0 0 160 0 160 -160 0 -160 0 0 -160z m237
108 c38 -23 69 -93 59 -134 -4 -15 -24 -45 -45 -66 -34 -33 -44 -38 -86 -38
-59 0 -107 28 -129 74 -20 42 -20 57 -2 100 36 87 120 114 203 64z"/>
<path d="M98 264 c-35 -19 -58 -63 -58 -111 0 -68 52 -113 131 -113 59 0 109
50 109 109 0 23 -7 55 -15 71 -28 55 -109 76 -167 44z m122 -38 c0 -24 -32
-46 -38 -27 -2 5 -10 7 -18 4 -21 -8 -18 44 3 56 25 13 53 -4 53 -33z m-80
-16 c0 -6 -16 -27 -35 -47 -29 -29 -38 -34 -48 -24 -9 10 -8 15 7 25 10 6 28
21 39 34 22 24 37 29 37 12z m73 -23 c17 8 26 6 41 -8 16 -16 17 -22 6 -48
-14 -34 -55 -65 -76 -57 -20 8 -17 44 4 51 11 3 25 18 31 33 l13 27 -25 -27
c-33 -35 -67 -29 -67 13 0 27 2 28 25 17 17 -8 32 -8 48 -1z m-70 -71 c18 -14
24 -32 7 -21 -5 3 -10 2 -10 -4 0 -5 6 -11 13 -14 6 -2 9 -7 5 -11 -8 -10 -88
31 -88 45 0 6 7 8 16 5 8 -3 12 -2 9 4 -9 15 27 12 48 -4z"/>
</g>
</svg>
